<svg xmlns="http://www.w3.org/2000/svg" viewBox="0 0 760 520" role="img" aria-labelledby="title desc">
  <title id="title">ModularHub Europe</title>
  <desc id="desc">Stacked ModularHub Europe logo with the MH house symbol.</desc>
  <g transform="translate(260 30) scale(2)">
    <path d="M10 28 58 3v14L22 37Z" fill="#000000"/>
    <path d="M8 34 34 50l24-20v66l-14-8V58L34 68 21 57v31L8 80Z" fill="#000000"/>
    <path d="m63 3 49 26v16L63 17Z" fill="#FCA311"/>
    <path d="m63 23 16 9v23l17 8V38l16 9v35l-16 8V70l-17-8v34H63Z" fill="#4D5562"/>
    <path d="m84 69 9 4v18l-9 4Z" fill="#FCA311"/>
  </g>
  <text x="380" y="330" text-anchor="middle" font-family="Manrope, Avenir Next, Arial, sans-serif" font-size="57" font-weight="800" letter-spacing="-2">
    <tspan fill="#000000">MODULAR </tspan><tspan fill="#FCA311">HUB </tspan><tspan fill="#4D5562">EUROPE</tspan>
  </text>
  <text x="380" y="390" text-anchor="middle" fill="#4D5562" font-family="Manrope, Avenir Next, Arial, sans-serif" font-size="17" font-weight="500" letter-spacing="7">BUILD A BRIGHTER TOMORROW TOGETHER</text>
</svg>
